PathFileType	4	(X/Y/Z)	RBDS023static.trc
DataRate	CameraRate	NumFrames	NumMarkers	Units	OrigDataRate	OrigDataStartFrame	OrigNumFrames
150.000000	150.000000	4	48	mm	150.000000	37	150
Frame#	Time	L.Ankle			L.Ankle.Medial			L.ASIS			L.GTR			L.Heel.Bottom			L.Heel.Lateral			L.Heel.Top			L.HF			L.Iliac.Crest			L.Knee			L.Knee.Medial			L.MT1			L.MT2			L.MT5			L.PSIS			L.Shank.Bottom.Lateral			L.Shank.Bottom.Medial			L.Shank.Top.Lateral			L.Shank.Top.Medial			L.Thigh.Bottom.Lateral			L.Thigh.Bottom.Medial			L.Thigh.Top.Lateral			L.Thigh.Top.Medial			L.TT			R.Ankle			R.Ankle.Medial			R.ASIS			R.GTR			R.Heel.Bottom			R.Heel.Lateral			R.Heel.Top			R.HF			R.Iliac.Crest			R.Knee			R.Knee.Medial			R.MT1			R.MT2			R.MT5			R.PSIS			R.Shank.Bottom.Lateral			R.Shank.Bottom.Medial			R.Shank.Top.Lateral			R.Shank.Top.Medial			R.Thigh.Bottom.Lateral			R.Thigh.Bottom.Medial			R.Thigh.Top.Lateral			R.Thigh.Top.Medial			R.TT			
		X1	Y1	Z1	X2	Y2	Z2	X3	Y3	Z3	X4	Y4	Z4	X5	Y5	Z5	X6	Y6	Z6	X7	Y7	Z7	X8	Y8	Z8	X9	Y9	Z9	X10	Y10	Z10	X11	Y11	Z11	X12	Y12	Z12	X13	Y13	Z13	X14	Y14	Z14	X15	Y15	Z15	X16	Y16	Z16	X17	Y17	Z17	X18	Y18	Z18	X19	Y19	Z19	X20	Y20	Z20	X21	Y21	Z21	X22	Y22	Z22	X23	Y23	Z23	X24	Y24	Z24	X25	Y25	Z25	X26	Y26	Z26	X27	Y27	Z27	X28	Y28	Z28	X29	Y29	Z29	X30	Y30	Z30	X31	Y31	Z31	X32	Y32	Z32	X33	Y33	Z33	X34	Y34	Z34	X35	Y35	Z35	X36	Y36	Z36	X37	Y37	Z37	X38	Y38	Z38	X39	Y39	Z39	X40	Y40	Z40	X41	Y41	Z41	X42	Y42	Z42	X43	Y43	Z43	X44	Y44	Z44	X45	Y45	Z45	X46	Y46	Z46	X47	Y47	Z47	X48	Y48	Z48	

38	0.2466666666666667	708.8724365234375	102.7083892822266	1034.65673828125	735.0206298828125	121.8843460083008	1117.52197265625	831.4673461914063	1063.922241210938	1126.026733398438	766.9859008789063	977.1583251953125	1063.186157226563	639.4443359375	41.34115982055664	1077.960571289063	668.7730712890625	61.47982025146484	1039.525634765625	649.9066162109375	87.68150329589844	1080.192138671875	712.835693359375	481.4683837890625	1034.012817382813	750.3414306640625	1126.177612304688	1073.86328125	725.1463623046875	553.1572265625	1046.441284179688	716.6077880859375	529.2020263671875	1164.426147460938	860.6673583984375	53.48964309692383	1126.331420898438	872.4893188476563	69.55741119384766	1082.896728515625	834.9342651367188	45.14342498779297	1010.452209472656	647.2030029296875	1079.903930664063	1174.050170898438	714.4628295898438	178.8425750732422	1030.454956054688	672.1278686523438	171.4803924560547	1058.286743164063	697.6392822265625	257.9815063476563	1019.542297363281	655.3844604492188	254.7811126708984	1050.646240234375	735.3347778320313	713.104248046875	1031.59375	674.29345703125	714.12060546875	1069.461181640625	734.69287109375	823.3988037109375	1033.9755859375	679.3333129882813	824.30615234375	1073.902099609375	771.7769165039063	462.8043518066406	1081.6611328125	698.5230102539063	105.0252685546875	1420.17236328125	731.3406372070313	123.086051940918	1340.00927734375	826.2880249023438	1068.011840820313	1341.520385742188	747.0390625	970.4397583007813	1403.077392578125	632.3406372070313	40.68661117553711	1373.81787109375	662.1433715820313	58.48973083496094	1416.9443359375	642.5508422851563	87.8890380859375	1373.410034179688	725.73681640625	492.9708862304688	1416.825073242188	739.7720336914063	1139.799560546875	1380.310546875	727.3087768554688	558.8959350585938	1409.950073242188	741.8975219726563	538.757568359375	1291.799072265625	854.3278198242188	53.93161392211914	1331.2041015625	862.9678955078125	71.01767730712891	1376.12353515625	829.0416870117188	47.39671325683594	1447.198852539063	644.69482421875	1086.06005859375	1282.7978515625	708.2936401367188	185.6178436279297	1426.357421875	662.1748046875	184.7251739501953	1395.257690429688	697.9968872070313	265.5969848632813	1437.301879882813	653.6041259765625	264.0473022460938	1406.274169921875	715.95166015625	681.45263671875	1418.501342773438	666.93408203125	676.0638427734375	1363.783569335938	704.8304443359375	790.5362548828125	1413.508911132813	660.1852416992188	785.6259765625	1360.78369140625	778.668212890625	463.7639770507813	1371.963256835938	
39	0.2533333333333334	708.8658447265625	102.7121963500977	1034.66162109375	735.0238647460938	121.8806915283203	1117.524169921875	831.4615478515625	1063.917236328125	1126.015625	766.9829711914063	977.156005859375	1063.1728515625	639.4397583007813	41.34119033813477	1077.965698242188	668.77392578125	61.47998046875	1039.5244140625	649.8992919921875	87.68587493896484	1080.190307617188	712.8369140625	481.471923828125	1034.009521484375	750.3452758789063	1126.171020507813	1073.86572265625	725.1572265625	553.1636962890625	1046.44091796875	716.6107788085938	529.2073974609375	1164.430419921875	860.6724853515625	53.48074722290039	1126.325927734375	872.4842529296875	69.55842590332031	1082.899658203125	834.9378662109375	45.14113616943359	1010.452087402344	647.2047119140625	1079.919067382813	1174.043823242188	714.4601440429688	178.8517608642578	1030.457275390625	672.1295166015625	171.4833984375	1058.284912109375	697.6425170898438	257.9864196777344	1019.543701171875	655.3873291015625	254.7831726074219	1050.651489257813	735.328125	713.11083984375	1031.58740234375	674.297607421875	714.1204223632813	1069.48291015625	734.6932373046875	823.387451171875	1033.980346679688	679.3375244140625	824.3016357421875	1073.894775390625	771.7783813476563	462.7975769042969	1081.65478515625	698.5216674804688	105.0258407592773	1420.165161132813	731.3412475585938	123.0868148803711	1340.005615234375	826.2941284179688	1068.01513671875	1341.521606445313	747.0494995117188	970.444580078125	1403.070190429688	632.3316650390625	40.69589614868164	1373.819458007813	662.1494140625	58.48327255249023	1416.951171875	642.5472412109375	87.88814544677734	1373.416137695313	725.7499389648438	492.9593200683594	1416.82470703125	739.7847900390625	1139.792724609375	1380.306518554688	727.3303833007813	558.8994750976563	1409.95068359375	741.8963623046875	538.7589111328125	1291.797607421875	854.327392578125	53.92961883544922	1331.203735351563	862.9677734375	71.01695251464844	1376.11962890625	829.0399780273438	47.39631652832031	1447.204345703125	644.7006225585938	1086.066528320313	1282.8017578125	708.3038330078125	185.6218566894531	1426.356323242188	662.1760864257813	184.7293395996094	1395.260864257813	698.0077514648438	265.6069030761719	1437.286865234375	653.6181640625	264.0488586425781	1406.273315429688	715.9767456054688	681.4507446289063	1418.50048828125	666.9482421875	676.0465087890625	1363.799560546875	704.845947265625	790.5375366210938	1413.499389648438	660.2008056640625	785.6237182617188	1360.794189453125	778.6845092773438	463.7576293945313	1371.964965820313	
40	0.26	708.8642578125	102.7091827392578	1034.657836914063	735.0474853515625	121.9946136474609	1117.48583984375	831.464111328125	1063.920043945313	1126.0087890625	766.9803466796875	977.162109375	1063.172607421875	639.447998046875	41.34417724609375	1077.96728515625	668.7698974609375	61.48320770263672	1039.515991210938	649.9054565429688	87.68714904785156	1080.196044921875	712.8362426757813	481.4717712402344	1034.013427734375	750.3350219726563	1126.175659179688	1073.853637695313	725.1610107421875	553.1591796875	1046.446899414063	716.633544921875	529.2048950195313	1164.42138671875	860.66943359375	53.48174667358398	1126.329345703125	872.4799194335938	69.55594635009766	1082.89892578125	834.9342041015625	45.14093780517578	1010.452697753906	647.2153930664063	1079.921020507813	1174.044799804688	714.45947265625	178.8470001220703	1030.452270507813	672.1299438476563	171.4789123535156	1058.2998046875	697.6492919921875	257.9823913574219	1019.544067382813	655.390869140625	254.7862091064453	1050.653564453125	735.3220825195313	713.1153564453125	1031.578491210938	674.3027954101563	714.1209106445313	1069.47802734375	734.6932373046875	823.3882446289063	1033.976440429688	679.3385009765625	824.3006591796875	1073.892700195313	771.8001098632813	462.8074951171875	1081.660888671875	698.5227661132813	105.0216445922852	1420.1611328125	731.3267211914063	123.0984344482422	1339.996337890625	826.30322265625	1068.009155273438	1341.511352539063	747.0646362304688	970.439453125	1403.071655273438	632.332275390625	40.69796371459961	1373.824096679688	662.1405639648438	58.48816680908203	1416.958374023438	642.553955078125	87.89192199707031	1373.410400390625	725.7630615234375	492.9566955566406	1416.821655273438	739.7848510742188	1139.794067382813	1380.289184570313	727.3533325195313	558.9031982421875	1409.953735351563	741.919921875	538.7640991210938	1291.786254882813	854.3257446289063	53.93009948730469	1331.20849609375	862.9718627929688	71.01612091064453	1376.131103515625	829.0501098632813	47.38926315307617	1447.189575195313	644.7075805664063	1086.063232421875	1282.79248046875	708.313232421875	185.6231079101563	1426.3564453125	662.1854248046875	184.7306365966797	1395.26318359375	698.0145263671875	265.6021728515625	1437.28759765625	653.6212158203125	264.0536193847656	1406.268676757813	715.9940185546875	681.4526977539063	1418.503784179688	666.9680786132813	676.0521240234375	1363.796508789063	704.8692626953125	790.54052734375	1413.493408203125	660.2156372070313	785.6209106445313	1360.7890625	778.697998046875	463.7586364746094	1371.965087890625	
41	0.2666666666666667	708.8701171875	102.7052307128906	1034.66455078125	735.0578002929688	121.9900360107422	1117.4794921875	831.4676513671875	1063.929931640625	1126.01220703125	766.9788208007813	977.15576171875	1063.173828125	639.4417724609375	41.34399795532227	1077.961059570313	668.7765502929688	61.48299026489258	1039.5302734375	649.900146484375	87.68746948242188	1080.189086914063	712.8345336914063	481.4774169921875	1034.002319335938	750.3369750976563	1126.175170898438	1073.845336914063	725.1534423828125	553.16015625	1046.437622070313	716.6385498046875	529.2080078125	1164.4287109375	860.6637573242188	53.49462509155273	1126.322265625	872.48291015625	69.55223083496094	1082.896728515625	834.9340209960938	45.14291763305664	1010.455200195313	647.2183837890625	1079.924560546875	1174.051025390625	714.46240234375	178.8474273681641	1030.4619140625	672.1298828125	171.4826812744141	1058.298706054688	697.6427612304688	257.9928894042969	1019.541320800781	655.386962890625	254.7825164794922	1050.653198242188	735.322265625	713.1209106445313	1031.573486328125	674.3053588867188	714.1155395507813	1069.496826171875	734.6773681640625	823.3958129882813	1033.969604492188	679.339599609375	824.30615234375	1073.900634765625	771.7929077148438	462.8121337890625	1081.65673828125	698.5322265625	105.0265274047852	1420.155029296875	731.336181640625	123.0938339233398	1339.9990234375	826.318115234375	1068.019409179688	1341.508911132813	747.068359375	970.4488525390625	1403.069702148438	632.3359985351563	40.6968879699707	1373.820190429688	662.1522827148438	58.4842643737793	1416.94677734375	642.5532836914063	87.88722991943359	1373.417114257813	725.7883911132813	492.9587707519531	1416.825439453125	739.793212890625	1139.791748046875	1380.263671875	727.3756713867188	558.8975219726563	1409.957885742188	741.9429931640625	538.767578125	1291.791381835938	854.3027954101563	53.8146858215332	1331.449829101563	862.9745483398438	71.01885223388672	1376.118041992188	829.0415649414063	47.39200592041016	1447.20068359375	644.7166748046875	1086.072021484375	1282.797729492188	708.3154296875	185.6316223144531	1426.350341796875	662.1824340820313	184.7355499267578	1395.25927734375	698.02099609375	265.6089477539063	1437.293090820313	653.631103515625	264.0557250976563	1406.272338867188	716.0173950195313	681.4512939453125	1418.497314453125	666.991943359375	676.0414428710938	1363.799926757813	704.8865356445313	790.5347290039063	1413.497924804688	660.2293090820313	785.6175537109375	1360.793579101563	778.7206420898438	463.7540588378906	1371.951416015625	
